<svg id="Layer_1" data-name="Layer 1" xmlns="http://www.w3.org/2000/svg" xmlns:xlink="http://www.w3.org/1999/xlink" viewBox="0 0 327.54 163.81"><defs><style>.cls-1,.cls-8,.cls-9{fill:#004899;}.cls-2,.cls-3,.cls-4,.cls-5{opacity:0.4;}.cls-2{fill:url(#linear-gradient);}.cls-3{fill:url(#linear-gradient-2);}.cls-4{fill:url(#linear-gradient-3);}.cls-5{fill:url(#linear-gradient-4);}.cls-6{fill:#e84e0f;}.cls-7{opacity:0.6;fill:url(#linear-gradient-5);}.cls-8{font-size:89px;}.cls-8,.cls-9{font-family:GothamRounded-Medium, Gotham Rounded;font-weight:500;}.cls-9{font-size:11.1px;}.cls-10{letter-spacing:-0.02em;}.cls-11{letter-spacing:-0.08em;}.cls-12{letter-spacing:-0.12em;}</style><linearGradient id="linear-gradient" x1="-3885.52" y1="26.66" x2="-3885.52" y2="45.27" gradientTransform="translate(-3812.99 94.14) rotate(180)" gradientUnits="userSpaceOnUse"><stop offset="0" stop-color="#0c0e1b"/><stop offset="1" stop-color="#004899"/></linearGradient><linearGradient id="linear-gradient-2" x1="241.1" y1="85.62" x2="241.1" y2="104.13" gradientTransform="translate(-195.67 -31)" gradientUnits="userSpaceOnUse"><stop offset="0" stop-color="#000100"/><stop offset="1" stop-color="#004899"/></linearGradient><linearGradient id="linear-gradient-3" x1="94.31" y1="78.36" x2="91.41" y2="97.94" gradientTransform="matrix(1, 0, 0, 1, 0, 0)" xlink:href="#linear-gradient"/><linearGradient id="linear-gradient-4" x1="111.24" y1="67.32" x2="108.21" y2="50.76" gradientTransform="matrix(1, 0, 0, 1, 0, 0)" xlink:href="#linear-gradient"/><linearGradient id="linear-gradient-5" x1="-4018.64" y1="126.72" x2="-4024.82" y2="137.43" gradientTransform="matrix(-1, 0, 0, 1, -3954.63, -36.1)" gradientUnits="userSpaceOnUse"><stop offset="0" stop-color="#1e1e1c" stop-opacity="0.6"/><stop offset="1" stop-color="#ed6b06" stop-opacity="0.3"/></linearGradient></defs><title>N8 CIR Logo CMYK</title><path class="cls-1" d="M41.07,45.54a4.4,4.4,0,0,1,4.44-4.44h.92c2.13,0,3.4,1,4.61,2.6L68.16,66.17V45.37a4.38,4.38,0,0,1,8.76,0v32.1a4.4,4.4,0,0,1-4.44,4.44h-.29c-2.13,0-3.4-1-4.61-2.6L49.83,56V77.64a4.38,4.38,0,1,1-8.76,0Z"/><path class="cls-2" d="M76.87,63a5,5,0,0,1-5,5,4.93,4.93,0,0,1-3.72-1.82v-17l8.76.1Z"/><path class="cls-3" d="M41.12,59.12a5,5,0,0,1,5-5A4.9,4.9,0,0,1,49.79,56V72.87l-8.72-.09Z"/><path class="cls-1" d="M113.36,70a16.9,16.9,0,1,0-23.48,0,19.66,19.66,0,1,0,23.48,0ZM101.62,50.28A7.61,7.61,0,1,1,94,57.89,7.62,7.62,0,0,1,101.62,50.28Zm0,45.89A10.38,10.38,0,1,1,112,85.79,10.39,10.39,0,0,1,101.62,96.17Z"/><path class="cls-4" d="M101.69,96.17a10.38,10.38,0,1,1,0-20.75l0,0v0A18.27,18.27,0,0,1,90,70h0a19.66,19.66,0,0,0,11.74,35.43C101.85,105.46,101.69,96.17,101.69,96.17Z"/><path class="cls-5" d="M101.62,65.5h0s4.88.15,11.73,4.51a16.89,16.89,0,0,0-11.75-29v9.29a7.61,7.61,0,1,1,0,15.22Z"/><path class="cls-6" d="M45.52,105.51A4.4,4.4,0,0,1,42.41,98L55.9,84.53a4.38,4.38,0,0,1,6.21,0L75.62,98a4.39,4.39,0,1,1-6.21,6.21L59,93.84,48.63,104.22A4.39,4.39,0,0,1,45.52,105.51Z"/><path class="cls-7" d="M67.87,102.68,59,93.85a8.86,8.86,0,0,1,12.42,0l3,3"/><text class="cls-8" transform="translate(133.72 104.38)">CIR</text><text class="cls-9" transform="translate(41.07 122.45)"><tspan class="cls-10">C</tspan><tspan x="7.97" y="0">OMPU</tspan><tspan class="cls-11" x="42.86" y="0">TA</tspan><tspan x="56.85" y="0">TIONAL</tspan><tspan class="cls-12" x="101.22" y="0">L</tspan><tspan x="106.73" y="0">Y INTENSIVE RESEARCH</tspan></text></svg>